<svg width="200" height="50" viewBox="0 0 350 79" fill="none" xmlns="http://www.w3.org/2000/svg">
<g clip-path="url(#clip0_1_145)">
<mask id="mask0_1_145" style="mask-type:luminance" maskUnits="userSpaceOnUse" x="0" y="0" width="350" height="79">
<path d="M350 0H0V79H350V0Z" fill="white"/>
</mask>
<g mask="url(#mask0_1_145)">
<path d="M274.253 16.2295H260.92V63.2288H274.253V16.2295Z" fill="white"/>
<path d="M222.126 28.3943H233.132V63.2288H246.465V28.3943H257.443V16.2295H222.126V28.3943Z" fill="white"/>
<path d="M201.609 45.3679H216.925V33.8614H201.609V28.4516H218.592V16.2295H188.276V63.2288H218.908V50.8635H201.609V45.3679Z" fill="white"/>
<path d="M170.144 37.7255L155.489 16.2295H144.828V63.2288H158.161V41.7328L172.816 63.2288H183.477V16.2295H170.144V37.7255Z" fill="white"/>
<path d="M106.034 28.3943H117.011V63.2288H130.345V28.3943H141.322V16.2295H106.034V28.3943Z" fill="white"/>
<path d="M85.4598 45.3679V45.3393H100.776V33.8328H85.4598V28.4516H102.443V16.2295H72.1264V63.2574H102.787V50.8922H85.4598V45.3679Z" fill="white"/>
<path d="M61.5805 38.9847C64.6839 36.6949 66.2356 33.5177 66.2356 29.4532C66.2356 25.1884 64.8563 21.9253 62.0977 19.6355C59.3391 17.3456 55.3448 16.2007 50.1149 16.2007H31.6092V63.2H51.3218C56.5517 63.2 60.5747 61.9978 63.3908 59.5648C66.1782 57.1605 67.5862 53.7543 67.5862 49.4036C67.5862 44.738 65.5747 41.2746 61.5805 38.9847ZM44.9425 27.7645H49.3391C50.3736 27.7645 51.2069 28.0507 51.8678 28.6231C52.5862 29.167 52.931 29.9112 52.931 30.913C52.931 32.7163 51.9828 33.7467 50.0575 34.0043L44.9425 34.0616V27.7645ZM53.1609 50.7202C52.4713 51.3786 51.5805 51.6934 50.5172 51.6934H44.9138V44.967L51.2356 45.0242C53.2471 45.3391 54.2241 46.4268 54.2241 48.3159C54.2241 49.2891 53.8793 50.1192 53.1609 50.7202Z" fill="white"/>
<path d="M0 0V79H350V0H0ZM4.02299 74.9928V4.00725H270.805L291.868 39.5286L277.787 63.2286H292.586L299.282 52.0083L312.902 74.9928H4.02299ZM345.977 74.9928H327.701L306.753 39.3569L320.402 16.2293H305.603L299.368 26.8199L285.977 4.00725H345.977V74.9928Z" fill="white"/>
</g>
</g>
<defs>
<clipPath id="clip0_1_145">
<rect width="350" height="79" fill="white"/>
</clipPath>
</defs>
</svg>
