<svg width="170" height="56" viewBox="0 0 170 56" fill="none" xmlns="http://www.w3.org/2000/svg">
<path fill-rule="evenodd" clip-rule="evenodd" d="M166.914 3.08587H3.08587V37.9803H166.914V3.08587ZM0 0V41.0661H170V0H0Z" fill="white"/>
<path d="M30.1168 20.2945C32.0523 21.3865 33.02 23.046 33.02 25.2729C33.02 27.3499 32.3426 28.9773 30.9877 30.155C29.6329 31.3112 27.6866 31.8894 25.149 31.8894H15.6006V9.40625H24.5684C27.106 9.40625 29.0415 9.95227 30.3748 11.0443C31.7082 12.1363 32.3748 13.6995 32.3748 15.7336C32.3748 17.6822 31.6221 19.2025 30.1168 20.2945ZM24.1813 14.9307H22.0522V17.9498L24.5361 17.9177C25.4608 17.7892 25.9232 17.2968 25.9232 16.4403C25.9232 15.9692 25.7512 15.6052 25.4071 15.3482C25.0845 15.0699 24.6759 14.9307 24.1813 14.9307ZM22.0522 26.365H24.7619C25.278 26.365 25.7081 26.2151 26.0522 25.9153C26.3963 25.6155 26.5684 25.2301 26.5684 24.759C26.5684 23.8597 26.0845 23.3351 25.1167 23.1852L22.0522 23.1531V26.365Z" fill="white"/>
<path d="M41.5835 23.4743V25.9795H49.9707V31.8894H35.1319V9.40625H49.8094V15.2519H41.5835V17.6929H49.0029V23.4743H41.5835Z" fill="white"/>
<path d="M51.2622 9.40625H68.3591V15.6373H63.0365V31.8894H56.5848V15.6373H51.2622V9.40625Z" fill="white"/>
<path d="M82.5464 19.6843V9.40625H88.998V31.8894H83.8367L76.7399 21.6114V31.8894H70.2883V9.40625H75.4496L82.5464 19.6843Z" fill="white"/>
<path d="M98.6654 23.4743V25.9795H107.053V31.8894H92.2137V9.40625H106.891V15.2519H98.6654V17.6929H106.085V23.4743H98.6654Z" fill="white"/>
<path d="M108.344 9.40625H125.441V15.6373H120.118V31.8894H113.667V15.6373H108.344V9.40625Z" fill="white"/>
<path d="M127.37 31.8894V9.40625H133.822V31.8894H127.37Z" fill="white"/>
<path d="M149.428 20.5193L156.235 31.8894H149.074L145.848 26.4934L142.59 31.8894H135.428L142.267 20.5193L135.59 9.40625H142.751L145.848 14.5453L148.912 9.40625H156.074L149.428 20.5193Z" fill="white"/>
<path fill-rule="evenodd" clip-rule="evenodd" d="M161.816 41.066L137.356 0H129.865L154.521 41.066H161.816Z" fill="white"/>
<path d="M36.1168 55.0207C35.2854 55.0207 34.5831 54.835 34.01 54.4637C33.4369 54.0924 33.0293 53.5798 32.7871 52.926L34.2159 52.0905C34.5468 52.9542 35.1966 53.3861 36.1652 53.3861C36.6173 53.3861 36.9563 53.3054 37.1823 53.1439C37.4083 52.9825 37.5213 52.7646 37.5213 52.4901C37.5213 52.1914 37.3881 51.9614 37.1218 51.7999C36.8554 51.6304 36.3791 51.4488 35.693 51.2551C34.9504 51.0291 34.3652 50.7667 33.9374 50.4681C33.4046 50.0725 33.1382 49.4914 33.1382 48.7245C33.1382 47.9496 33.4087 47.3402 33.9495 46.8962C34.4903 46.4361 35.1482 46.2061 35.9231 46.2061C36.6011 46.2061 37.2025 46.3715 37.7272 46.7025C38.2518 47.0334 38.6595 47.5016 38.9501 48.107L37.5455 48.9182C37.2065 48.1918 36.6657 47.8285 35.9231 47.8285C35.5841 47.8285 35.3136 47.9092 35.1118 48.0707C34.91 48.2241 34.8091 48.4259 34.8091 48.6761C34.8091 48.9425 34.9181 49.1604 35.1361 49.3299C35.3782 49.4994 35.806 49.677 36.4195 49.8627L37.0007 50.0564C37.1056 50.0887 37.2872 50.1573 37.5455 50.2622C37.7877 50.351 37.9653 50.4358 38.0783 50.5165C38.4738 50.7587 38.7402 51.0089 38.8774 51.2672C39.0873 51.6062 39.1922 52.0058 39.1922 52.4659C39.1922 53.2489 38.9057 53.8704 38.3326 54.3305C37.7595 54.7906 37.0209 55.0207 36.1168 55.0207Z" fill="white"/>
<path d="M48.3232 53.7493C47.4675 54.5969 46.4263 55.0207 45.1993 55.0207C43.9724 55.0207 42.9311 54.5969 42.0755 53.7493C41.2279 52.8856 40.8041 51.8403 40.8041 50.6134C40.8041 49.3783 41.2279 48.3371 42.0755 47.4895C42.9311 46.6339 43.9724 46.2061 45.1993 46.2061C46.4263 46.2061 47.4675 46.6339 48.3232 47.4895C49.1788 48.3371 49.6066 49.3783 49.6066 50.6134C49.6066 51.8484 49.1788 52.8937 48.3232 53.7493ZM43.2499 52.6112C43.7665 53.1278 44.4163 53.3861 45.1993 53.3861C45.9823 53.3861 46.6321 53.1278 47.1487 52.6112C47.6734 52.0865 47.9357 51.4206 47.9357 50.6134C47.9357 49.8062 47.6734 49.1402 47.1487 48.6155C46.624 48.0909 45.9742 47.8285 45.1993 47.8285C44.4244 47.8285 43.7746 48.0909 43.2499 48.6155C42.7252 49.1402 42.4629 49.8062 42.4629 50.6134C42.4629 51.4206 42.7252 52.0865 43.2499 52.6112Z" fill="white"/>
<path d="M55.7695 55.0207C54.5022 55.0207 53.4488 54.5969 52.6093 53.7493C51.7779 52.9098 51.3622 51.8645 51.3622 50.6134C51.3622 49.3541 51.7779 48.3088 52.6093 47.4774C53.4488 46.6298 54.5022 46.2061 55.7695 46.2061C56.5363 46.2061 57.2426 46.3877 57.8884 46.7509C58.5422 47.1061 59.0508 47.5904 59.414 48.2039L57.9731 49.0393C57.7633 48.6599 57.4646 48.3653 57.0772 48.1554C56.6897 47.9375 56.2538 47.8285 55.7695 47.8285C54.9461 47.8285 54.2802 48.0868 53.7717 48.6034C53.2712 49.1281 53.021 49.7981 53.021 50.6134C53.021 51.4206 53.2712 52.0865 53.7717 52.6112C54.2802 53.1278 54.9461 53.3861 55.7695 53.3861C56.2538 53.3861 56.6897 53.2812 57.0772 53.0713C57.4727 52.8533 57.7713 52.5587 57.9731 52.1874L59.414 53.0229C59.0508 53.6363 58.5422 54.1247 57.8884 54.4879C57.2426 54.8431 56.5363 55.0207 55.7695 55.0207Z" fill="white"/>
<path d="M61.4091 54.8512V46.3756H63.08V54.8512H61.4091Z" fill="white"/>
<path d="M72.8823 54.8512H71.0661L70.5576 53.3256H67.1795L66.6709 54.8512H64.8668L67.8333 46.3756H69.9038L72.8823 54.8512ZM68.8746 48.3007L67.7122 51.7636H70.037L68.8746 48.3007Z" fill="white"/>
<path d="M76.3448 46.3756V53.2529H79.5777V54.8512H74.6739V46.3756H76.3448Z" fill="white"/>
<path d="M90.6129 50.456C91.3555 50.8838 91.7268 51.5295 91.7268 52.3932C91.7268 53.1116 91.4725 53.7009 90.964 54.161C90.4555 54.6211 89.8299 54.8512 89.0873 54.8512H85.4912V46.3756H88.833C89.5514 46.3756 90.1608 46.6016 90.6613 47.0536C91.1618 47.5056 91.412 48.0747 91.412 48.7608C91.412 49.4631 91.1456 50.0281 90.6129 50.456ZM88.833 47.9375H87.1621V49.8021H88.833C89.0913 49.8021 89.3052 49.7133 89.4747 49.5358C89.6523 49.3582 89.7411 49.1362 89.7411 48.8698C89.7411 48.6034 89.6563 48.3815 89.4868 48.2039C89.3173 48.0263 89.0994 47.9375 88.833 47.9375ZM87.1621 53.2892H89.0873C89.3698 53.2892 89.6039 53.1964 89.7895 53.0107C89.9752 52.817 90.068 52.5749 90.068 52.2843C90.068 52.0017 89.9752 51.7677 89.7895 51.582C89.6039 51.3883 89.3698 51.2914 89.0873 51.2914H87.1621V53.2892Z" fill="white"/>
<path d="M95.4617 51.352V53.2529H99.0336V54.8512H93.7908V46.3756H98.9731V47.9738H95.4617V49.7779H98.6704V51.352H95.4617Z" fill="white"/>
<path d="M100.55 46.3756H106.786V47.9738H104.498V54.8512H102.827V47.9738H100.55V46.3756Z" fill="white"/>
<path d="M108.058 46.3756H114.293V47.9738H112.005V54.8512H110.334V47.9738H108.058V46.3756Z" fill="white"/>
<path d="M116.195 54.8512V46.3756H117.866V54.8512H116.195Z" fill="white"/>
<path d="M125.307 51.5457V46.3756H126.978V54.8512H125.707L122.074 49.6689V54.8512H120.403V46.3756H121.675L125.307 51.5457Z" fill="white"/>
<path d="M133.587 50.2986H137.837V50.9524C137.837 52.1632 137.45 53.1439 136.675 53.8946C135.9 54.6453 134.899 55.0207 133.672 55.0207C132.364 55.0207 131.279 54.5969 130.415 53.7493C129.559 52.8937 129.131 51.8524 129.131 50.6255C129.131 49.3905 129.555 48.3451 130.403 47.4895C131.258 46.6339 132.316 46.2061 133.575 46.2061C134.358 46.2061 135.076 46.3836 135.73 46.7388C136.384 47.094 136.897 47.5743 137.268 48.1797L135.839 49.003C135.637 48.6559 135.331 48.3734 134.919 48.1554C134.507 47.9375 134.055 47.8285 133.563 47.8285C132.748 47.8285 132.082 48.0949 131.565 48.6277C131.049 49.1443 130.79 49.8102 130.79 50.6255C130.79 51.4246 131.053 52.0865 131.577 52.6112C132.102 53.1278 132.804 53.3861 133.684 53.3861C134.322 53.3861 134.854 53.2448 135.282 52.9623C135.71 52.6798 136.001 52.2843 136.154 51.7757H133.587V50.2986Z" fill="white"/>
</svg>
